# Cube with UVs and Normals
# Counter-clockwise winding
# Side length: 1.0
# UV (0,0) = top-left corner

# Vertices
v -0.5 -0.5  0.5
v  0.5 -0.5  0.5
v  0.5  0.5  0.5
v -0.5  0.5  0.5
v -0.5 -0.5 -0.5
v  0.5 -0.5 -0.5
v  0.5  0.5 -0.5
v -0.5  0.5 -0.5

# Texture Coordinates (0,0 = top-left)
vt 0.0 0.0
vt 1.0 0.0
vt 1.0 1.0
vt 0.0 1.0

# Normals
vn  0.0  0.0  1.0
vn  0.0  0.0 -1.0
vn  1.0  0.0  0.0
vn -1.0  0.0  0.0
vn  0.0  1.0  0.0
vn  0.0 -1.0  0.0

# Front face (Z+) - vertices 1,2,3,4
f 1/4/1 2/3/1 3/2/1
f 1/4/1 3/2/1 4/1/1

# Back face (Z-) - vertices 6,5,8,7
f 6/4/2 5/3/2 8/2/2
f 6/4/2 8/2/2 7/1/2

# Right face (X+) - vertices 2,6,7,3
f 2/4/3 6/3/3 7/2/3
f 2/4/3 7/2/3 3/1/3

# Left face (X-) - vertices 5,1,4,8
f 5/4/4 1/3/4 4/2/4
f 5/4/4 4/2/4 8/1/4

# Top face (Y+) - vertices 4,3,7,8
f 4/4/5 3/3/5 7/2/5
f 4/4/5 7/2/5 8/1/5

# Bottom face (Y-) - vertices 1,5,6,2
f 1/4/6 5/3/6 6/2/6
f 1/4/6 6/2/6 2/1/6
