# Cube with UVs and Normals
# Counter-clockwise winding

# Vertices
v -0.5 -0.5  0.5
v  0.5 -0.5  0.5
v  0.5  0.5  0.5
v -0.5  0.5  0.5
v -0.5 -0.5 -0.5
v  0.5 -0.5 -0.5
v  0.5  0.5 -0.5
v -0.5  0.5 -0.5

# Texture Coordinates
vt 0.0 0.0
vt 1.0 0.0
vt 1.0 1.0
vt 0.0 1.0

# Normals
vn  0.0  0.0  1.0
vn  0.0  0.0 -1.0
vn  1.0  0.0  0.0
vn -1.0  0.0  0.0
vn  0.0  1.0  0.0
vn  0.0 -1.0  0.0

# Front face (Z+) - vertices 1,2,3,4
f 1/1/1 2/2/1 3/3/1
f 1/1/1 3/3/1 4/4/1

# Back face (Z-) - vertices 5,6,7,8
f 5/2/2 7/4/2 6/1/2
f 5/2/2 8/3/2 7/4/2

# Right face (X+) - vertices 2,3,6,7
f 2/1/3 7/3/3 3/4/3
f 2/1/3 6/2/3 7/3/3

# Left face (X-) - vertices 1,4,5,8
f 1/2/4 8/3/4 5/1/4
f 1/2/4 4/4/4 8/3/4

# Top face (Y+) - vertices 3,4,7,8
f 3/2/5 8/3/5 4/1/5
f 3/2/5 7/4/5 8/3/5

# Bottom face (Y-) - vertices 1,2,5,6
f 6/1/6 1/4/6 5/2/6
f 6/1/6 2/3/6 1/4/6
